PathFileType   4   (X/Y/Z)
DataRate  CameraRate  NumFrames  NumMarkers  Units  OrigDataRate  OrigDataStartFrame  OrigNumFrames  
  120.0      120.0        10         37         mm      120.0          68        134
Frame#      Time                    midhip                           hip_r                           hip_l                          knee_r                          knee_l                         ankle_r                         ankle_l                         midasis                          asis_r                          asis_l                          psis_r                          psis_l                    epicondLat_r                    epicondLat_l                    epicondMed_r                    epicondMed_l                  malleolusLat_r                  malleolusLat_l                 malleolusMedv_r                 malleolusMedv_l                    sternalnotch                  xyphoidprocess                            neck                           toe_r                           toe_l                     thighwand_r                     thighwand_l                     upperleg1_r                     upperleg1_l                     upperleg2_r                     upperleg2_l                     shankwand_r                     shankwand_l                     lowerleg1_r                     lowerleg1_l                   subclavicle_r                   subclavicle_l            
              X1          Y1          Z1          X2          Y2          Z2          X3          Y3          Z3          X4          Y4          Z4          X5          Y5          Z5          X6          Y6          Z6          X7          Y7          Z7          X8          Y8          Z8          X9          Y9          Z9          X10          Y10          Z10          X11          Y11          Z11          X12          Y12          Z12          X13          Y13          Z13          X14          Y14          Z14          X15          Y15          Z15          X16          Y16          Z16          X17          Y17          Z17          X18          Y18          Z18          X19          Y19          Z19          X20          Y20          Z20          X21          Y21          Z21          X22          Y22          Z22          X23          Y23          Z23          X24          Y24          Z24          X25          Y25          Z25          X26          Y26          Z26          X27          Y27          Z27          X28          Y28          Z28          X29          Y29          Z29          X30          Y30          Z30          X31          Y31          Z31          X32          Y32          Z32          X33          Y33          Z33          X34          Y34          Z34          X35          Y35          Z35          X36          Y36          Z36          X37          Y37          Z37          

	68	0.70833	1832.843	754.063	-263.083	1828.471	752.565	-205.842	1837.215	755.562	-320.324	1902.769	412.248	-197.255	1699.270	430.202	-301.642	1986.989	65.939	-205.804	1521.450	112.470	-276.365	1867.003	827.236	-259.096	1873.726	830.576	-149.709	1860.279	823.896	-368.483	1692.810	856.211	-209.881	1690.502	854.595	-263.504	1938.691	421.858	-137.934	1713.599	406.251	-358.118	1909.362	417.995	-260.519	1738.124	415.228	-239.367	1982.083	64.062	-168.674	1513.051	115.025	-311.794	1989.393	62.336	-239.411	1520.204	117.113	-242.822	1855.927	1179.236	-255.506	1865.077	1077.601	-260.887	1748.026	1248.530	-249.169	2069.636	57.903	-203.039	1591.757	54.653	-283.568	2002.908	589.321	-172.825	1856.408	533.786	-394.976	1943.648	606.662	-130.100	1856.758	581.688	-327.891	1950.010	550.486	-137.700	1835.463	527.726	-316.254	2081.806	205.322	-179.141	1561.432	196.755	-408.603	2009.376	177.597	-197.014	1562.593	192.893	-329.239	1857.998	1177.853	-198.705	1859.440	1181.009	-306.061
	69	0.71667	1840.903	755.195	-262.708	1836.375	753.783	-205.477	1845.431	756.607	-319.940	1910.919	413.491	-197.237	1707.867	432.486	-302.470	1987.966	65.577	-205.675	1525.848	116.405	-277.386	1875.001	828.342	-258.746	1881.453	831.818	-149.339	1868.548	824.865	-368.153	1700.665	857.196	-210.421	1698.728	855.455	-264.071	1945.420	422.511	-138.012	1723.474	406.439	-359.324	1916.612	418.448	-259.838	1744.203	416.183	-241.479	1983.377	63.833	-168.498	1517.464	119.116	-312.807	1989.737	61.949	-239.292	1525.434	120.797	-243.908	1863.286	1180.414	-254.723	1872.698	1078.838	-260.734	1755.089	1249.466	-248.030	2070.607	56.263	-203.373	1594.162	55.369	-284.042	2010.226	589.823	-174.167	1866.273	534.706	-394.761	1952.298	608.506	-131.549	1865.940	582.802	-326.665	1958.615	551.893	-138.736	1843.615	527.990	-315.648	2085.142	203.705	-180.112	1567.238	200.076	-409.690	2011.949	176.728	-197.019	1568.872	195.536	-330.643	1865.520	1178.716	-198.424	1866.652	1182.480	-304.789
	70	0.72500	1848.943	756.451	-262.272	1844.244	755.113	-205.052	1853.641	757.789	-319.491	1917.327	414.743	-197.021	1723.588	428.380	-303.979	1988.703	65.283	-205.533	1530.869	120.472	-278.421	1882.991	829.583	-258.302	1889.150	833.160	-148.857	1876.831	826.005	-367.747	1708.491	858.353	-210.951	1707.180	856.418	-264.608	1951.670	423.041	-137.932	1733.787	406.664	-360.740	1921.910	418.637	-257.957	1761.405	411.849	-242.715	1984.403	63.641	-168.316	1522.412	123.380	-313.808	1990.258	61.478	-239.133	1531.188	124.849	-245.013	1870.706	1181.680	-253.964	1880.442	1080.180	-260.693	1762.283	1250.357	-247.156	2071.303	54.890	-203.564	1596.818	56.030	-284.563	2017.336	590.127	-175.237	1876.486	535.866	-394.531	1960.558	610.168	-132.403	1874.913	584.037	-326.069	1966.440	552.996	-139.047	1855.631	529.717	-316.000	2088.129	202.173	-180.911	1573.340	203.705	-410.804	2014.370	175.957	-197.224	1575.495	198.773	-332.119	1873.068	1179.608	-197.782	1873.956	1184.096	-303.923
	71	0.73333	1856.962	757.812	-261.779	1852.093	756.512	-204.573	1861.830	759.111	-318.985	1922.847	416.497	-196.661	1735.953	426.443	-305.547	1989.268	65.077	-205.409	1536.592	124.614	-279.453	1890.971	830.930	-257.771	1896.833	834.548	-148.266	1885.109	827.311	-367.276	1716.310	859.628	-211.438	1715.955	857.441	-265.027	1957.373	423.453	-137.712	1744.533	406.912	-362.362	1926.875	421.083	-259.651	1773.681	412.299	-241.325	1985.236	63.506	-168.159	1527.968	127.768	-314.779	1990.545	61.317	-239.024	1537.359	129.010	-246.080	1878.189	1183.155	-253.312	1887.999	1081.680	-260.307	1769.758	1251.704	-246.236	2071.790	53.764	-203.682	1599.732	56.603	-285.129	2024.195	590.184	-175.941	1887.020	537.265	-394.353	1968.253	611.138	-132.761	1884.128	585.275	-326.532	1973.528	554.007	-139.923	1865.974	531.185	-315.915	2090.812	200.745	-181.602	1579.781	207.638	-411.926	2016.705	175.415	-197.245	1582.495	202.553	-333.306	1880.759	1180.954	-197.035	1881.253	1185.692	-303.387
	72	0.74167	1864.949	759.268	-261.238	1859.922	757.962	-204.046	1869.977	760.574	-318.431	1929.888	418.234	-196.214	1746.488	426.530	-307.186	1989.717	64.961	-205.334	1543.082	128.761	-280.476	1898.937	832.354	-257.163	1904.513	835.931	-147.575	1893.361	828.778	-366.751	1724.133	860.972	-211.839	1724.740	858.584	-265.307	1962.518	423.761	-137.394	1755.707	407.174	-364.179	1934.305	425.299	-265.459	1782.478	414.059	-241.010	1985.934	63.436	-168.057	1534.190	132.219	-315.707	1990.586	61.203	-238.932	1543.619	133.024	-247.005	1885.638	1184.597	-252.801	1895.352	1083.102	-259.645	1777.038	1253.376	-245.205	2072.125	52.854	-203.802	1602.917	57.065	-285.722	2030.762	589.972	-176.242	1897.836	538.881	-394.285	1975.199	611.496	-133.000	1893.521	586.457	-326.782	1980.461	554.822	-141.739	1875.349	532.307	-315.754	2093.226	199.428	-182.221	1586.606	211.850	-413.038	2018.729	174.669	-197.078	1589.454	206.492	-333.905	1888.210	1182.476	-196.506	1888.701	1187.057	-302.894
	73	0.75000	1872.934	760.789	-260.697	1867.763	759.418	-203.519	1878.105	762.160	-317.875	1933.627	417.632	-195.672	1759.494	425.808	-309.057	1990.093	64.927	-205.334	1550.377	132.837	-281.487	1906.876	833.825	-256.489	1912.189	837.260	-146.807	1901.562	830.390	-366.170	1731.973	862.340	-212.126	1733.642	859.782	-265.367	1967.139	423.978	-137.026	1767.298	407.445	-366.173	1937.236	422.194	-259.435	1794.122	412.736	-243.583	1986.527	63.422	-168.034	1541.121	136.661	-316.586	1990.797	60.740	-238.836	1550.510	136.963	-247.867	1892.879	1185.949	-252.193	1902.400	1084.442	-259.129	1784.299	1254.965	-243.941	2072.354	52.111	-203.987	1606.404	57.418	-286.311	2037.015	589.499	-176.164	1908.879	540.679	-394.367	1981.577	611.681	-132.670	1902.984	587.720	-326.423	1986.120	554.459	-139.889	1885.764	533.488	-316.175	2095.399	198.213	-182.781	1593.853	216.291	-414.117	2020.405	173.550	-197.098	1596.780	210.544	-334.348	1895.221	1183.747	-195.824	1896.148	1188.470	-302.337
	74	0.75833	1880.896	762.355	-260.207	1875.598	760.848	-203.045	1886.193	763.862	-317.370	1936.970	417.943	-195.156	1772.245	425.972	-310.999	1990.422	64.950	-205.430	1558.491	136.767	-282.493	1914.767	835.302	-255.757	1919.850	838.495	-145.989	1909.684	832.110	-365.526	1739.833	863.700	-212.267	1742.370	861.048	-265.229	1971.306	424.113	-136.661	1779.269	407.716	-368.314	1939.910	421.536	-256.230	1805.148	411.790	-246.995	1987.033	63.447	-168.114	1548.785	141.018	-317.421	1991.153	60.338	-238.866	1559.042	141.009	-248.848	1900.018	1187.413	-251.372	1909.476	1085.909	-258.440	1791.478	1256.476	-242.816	2072.522	51.490	-204.275	1610.246	57.698	-286.864	2042.973	588.802	-175.762	1920.089	542.617	-394.622	1987.819	611.984	-131.791	1912.790	589.278	-326.270	1991.563	554.090	-138.506	1896.108	534.524	-316.871	2097.357	197.074	-183.286	1601.555	220.882	-415.145	2021.804	172.824	-197.459	1605.322	214.731	-335.464	1902.320	1185.124	-194.807	1903.323	1190.009	-301.708
	75	0.76667	1888.795	763.912	-259.758	1883.391	762.202	-202.611	1894.199	765.621	-316.905	1939.945	418.701	-194.766	1783.751	426.768	-313.068	1990.723	65.002	-205.636	1567.395	140.495	-283.500	1922.586	836.739	-254.982	1927.478	839.601	-145.148	1917.693	833.878	-364.816	1747.705	865.027	-212.246	1750.796	862.348	-264.927	1975.106	424.173	-136.343	1791.569	407.986	-370.559	1942.502	422.305	-255.003	1814.991	412.920	-248.573	1987.462	63.487	-168.309	1557.176	145.222	-318.220	1991.219	60.577	-239.116	1569.166	145.029	-249.971	1907.330	1188.987	-250.518	1916.962	1087.485	-257.363	1798.670	1257.881	-242.025	2072.667	50.951	-204.681	1614.539	57.991	-287.375	2048.685	587.932	-175.120	1931.413	544.662	-395.068	1993.873	611.985	-130.678	1923.011	590.991	-326.823	1996.721	553.929	-137.461	1906.246	535.618	-317.459	2099.124	195.978	-183.733	1609.742	225.523	-416.106	2023.189	172.801	-197.699	1614.975	218.830	-337.282	1909.789	1186.841	-193.939	1910.493	1191.467	-300.883
	76	0.77500	1896.546	765.389	-259.296	1891.059	763.435	-202.164	1902.033	767.343	-316.427	1943.067	418.864	-194.535	1797.123	426.788	-315.358	1991.010	65.056	-205.953	1577.018	144.005	-284.506	1930.305	838.084	-254.178	1935.048	840.550	-144.304	1925.561	835.617	-364.052	1755.526	866.296	-212.035	1758.658	863.684	-264.548	1978.629	424.158	-136.103	1804.135	408.252	-372.863	1945.578	422.103	-253.249	1827.594	412.622	-251.022	1987.822	63.518	-168.621	1566.254	149.239	-318.988	1991.203	61.162	-239.522	1580.164	148.225	-251.142	1914.721	1190.682	-249.872	1924.892	1089.221	-256.553	1805.830	1258.929	-241.446	2072.818	50.467	-205.202	1619.417	58.422	-287.878	2054.195	586.928	-174.348	1942.803	546.787	-395.704	1999.417	611.379	-129.737	1933.306	592.703	-327.417	2001.527	553.740	-136.245	1917.423	537.289	-318.551	2100.727	194.891	-184.121	1618.432	230.105	-416.985	2024.812	173.001	-197.768	1625.456	222.363	-338.811	1917.134	1188.631	-193.225	1917.924	1193.104	-300.300
	77	0.78333	1904.090	766.727	-258.790	1898.549	764.522	-201.672	1909.632	768.932	-315.907	1946.122	418.604	-194.461	1810.803	426.921	-317.718	1991.286	65.092	-206.368	1587.258	147.317	-285.501	1937.898	839.287	-253.363	1942.534	841.329	-143.468	1933.263	837.244	-363.258	1763.242	867.470	-211.663	1765.987	865.002	-264.152	1981.952	424.072	-135.954	1816.905	408.507	-375.176	1948.890	420.899	-250.976	1840.815	411.737	-254.078	1988.117	63.526	-169.035	1575.951	153.063	-319.727	1990.885	61.966	-240.037	1591.190	150.579	-252.210	1922.018	1192.338	-249.133	1932.855	1090.944	-255.775	1812.792	1259.815	-240.966	2072.996	50.022	-205.818	1625.050	59.138	-288.442	2059.538	585.819	-173.561	1954.210	548.980	-396.510	2004.749	610.558	-129.293	1943.692	594.415	-327.824	2006.145	553.238	-135.155	1928.801	538.844	-319.711	2102.191	193.790	-184.446	1627.633	234.522	-417.776	2026.128	173.281	-197.679	1636.304	225.427	-339.435	1924.381	1190.318	-192.439	1925.260	1194.769	-299.603
